:SAMPLES-PER-SECOND 30
:FULLY-SPECIFIED
:DEGREES
179
root  39.3624 38.0645 24.1074 129.994 86.6826 113.829
RightUpLeg  -49.6688 -29.3077 10.8205
RightLeg  21.7414 6.35411 2.58206
RightFoot  10.4684 1.41366 -6.94797
RightToes  0.00048216 0.542163 -0.142577
Spine  50.1975 -5.55537 8.1216
Spine1  12.6515 -2.24091 -0.684638
HEad  -22.0818 -5.31864 -4.29118
LeftShoulder1  10.2085 -22.7579 -32.7169
LeftArm  -18.4775 -44.6183 -26.2946
LeftForeArm  -5.51102 -25.0423 -5.65838
LeftHand  -0.25398 0.0180481 5.50724
RightShoulder  5.02206 11.7467 26.881
RightArm  -24.9387 38.0884 17.9864
RightForeArm  -34.3528 30.5668 8.23774
RightHand  0.0298921 -3.3095 3.11598
LeftUpLeg  -46.0957 15.3461 -15.289
LeftLeg  31.1875 1.11949 1.13071
LeftFoot  -4.88171 0.203904 -3.28931
LeftToes  1.06248e-005 4.65855e-005 -8.185e-006
180
root  39.8264 38.0267 24.5161 114.722 87.0992 94.5997
RightUpLeg  -53.8401 -27.2735 13.3133
RightLeg  22.3212 6.23482 2.5886
RightFoot  10.3987 1.6367 -8.12921
RightToes  0.00048216 0.542163 -0.142577
Spine  51.8474 -5.53873 8.61571
Spine1  12.5819 -0.987681 -2.25257
HEad  -24.8541 -5.51923 -4.27886
LeftShoulder1  10.1589 -23.8544 -30.9475
LeftArm  -23.0533 -50.4353 -24.2163
LeftForeArm  -5.11577 -20.9804 -4.97054
LeftHand  -0.25398 0.0180481 5.50724
RightShoulder  4.98271 12.4205 25.1661
RightArm  -28.5284 42.8659 13.477
RightForeArm  -34.037 24.5129 6.85395
RightHand  0.183532 -0.901348 4.99571
LeftUpLeg  -48.9083 18.5226 -21.1465
LeftLeg  22.0833 -3.10826 -1.09992
LeftFoot  -0.0973935 -0.178687 1.57927
LeftToes  1.06248e-005 4.65855e-005 -8.185e-006
181
root  40.2793 37.9217 24.8587 95.1836 87.4131 71.2559
RightUpLeg  -57.8341 -24.7214 15.2329
RightLeg  23.4578 5.67715 2.47399
RightFoot  9.9851 1.81657 -9.25923
RightToes  0.00048216 0.542163 -0.142577
Spine  53.9989 -5.3301 8.6403
Spine1  11.3831 0.0695098 -3.06525
HEad  -26.5671 -5.51033 -5.08203
LeftShoulder1  10.1153 -24.8053 -29.5048
LeftArm  -30.0895 -54.8522 -21.2874
LeftForeArm  -3.20465 -17.7713 -4.51671
LeftHand  -0.25398 0.0180481 5.50724
RightShoulder  5.02002 13.0594 24.1318
RightArm  -33.1747 47.0993 7.57083
RightForeArm  -32.8283 19.0906 6.60876
RightHand  0.357523 1.21173 6.18485
LeftUpLeg  -52.1368 18.5461 -23.8828
LeftLeg  18.4749 -5.00826 -1.57807
LeftFoot  3.82989 -1.17427 8.73987
LeftToes  1.06248e-005 4.65855e-005 -8.185e-006
182
root  40.7286 37.8269 25.2162 97.5717 87.5975 70.4724
RightUpLeg  -61.0341 -23.0024 16.6404
RightLeg  24.7089 4.72403 2.14809
RightFoot  8.88392 1.94377 -10.5207
RightToes  0.00048216 0.542163 -0.142577
Spine  56.6537 -5.38817 8.70263
Spine1  9.19136 0.254024 -2.91735
HEad  -28.1598 -5.1359 -5.88081
LeftShoulder1  10.0259 -25.519 -28.2766
LeftArm  -37.6219 -58.7052 -16.4923
LeftForeArm  -2.30997 -14.8704 -3.61329
LeftHand  -0.25398 0.0180481 5.50724
RightShoulder  5.17483 13.7854 23.7294
RightArm  -40.055 50.5865 0.443007
RightForeArm  -29.7861 14.7241 7.03278
RightHand  0.509756 2.40352 7.36004
LeftUpLeg  -55.1267 16.0825 -22.9214
LeftLeg  19.5218 -3.60189 -1.10055
LeftFoot  4.79202 -1.75029 12.128
LeftToes  1.06248e-005 4.65855e-005 -8.185e-006
183
root  41.1962 37.7843 25.5858 116.56 87.5696 86.8116
RightUpLeg  -63.6299 -22.2171 17.7222
RightLeg  25.8122 3.7478 1.74666
RightFoot  7.75968 1.97674 -11.3769
RightToes  0.00048216 0.542163 -0.142577
Spine  59.4191 -5.78056 9.00269
Spine1  7.04834 0.00198349 -2.85614
HEad  -30.2256 -4.68578 -6.03798
LeftShoulder1  9.9195 -26.1765 -27.1063
LeftArm  -45.4928 -62.4499 -9.00968
LeftForeArm  -2.91301 -12.2142 -2.56461
LeftHand  -0.25398 0.0180481 5.50724
RightShoulder  5.36391 14.5911 23.4208
RightArm  -47.1081 52.5918 -7.08603
RightForeArm  -27.3193 12.0337 6.8503
RightHand  0.66742 3.36195 8.52638
LeftUpLeg  -57.9084 14.911 -22.4694
LeftLeg  21.2922 -3.2049 -1.04958
LeftFoot  4.39856 -1.53372 10.8626
LeftToes  1.06248e-005 4.65855e-005 -8.185e-006
184
root  41.6825 37.7685 25.8955 121.463 87.3407 88.9994
RightUpLeg  -66.2196 -21.3758 18.6996
RightLeg  26.793 3.11916 1.48159
RightFoot  6.62321 1.75778 -10.7856
RightToes  0.00048216 0.542163 -0.142577
Spine  61.8643 -6.08581 9.29503
Spine1  5.46768 0.134962 -3.65845
HEad  -32.0285 -4.82305 -5.79796
LeftShoulder1  9.79639 -26.863 -25.8867
LeftArm  -53.722 -65.4863 -0.168263
LeftForeArm  -4.04874 -10.5158 -1.81383
LeftHand  -0.25398 0.0180481 5.50724
RightShoulder  5.43357 15.2412 22.723
RightArm  -53.4054 53.045 -13.9017
RightForeArm  -25.9911 10.4356 6.23759
RightHand  0.844065 4.92049 9.09237
LeftUpLeg  -60.6452 15.2831 -23.8066
LeftLeg  21.8197 -4.41233 -1.61068
LeftFoot  4.29248 -1.30995 9.32919
LeftToes  1.06248e-005 4.65855e-005 -8.185e-006
185
root  42.1551 37.7506 26.131 113.906 87.1829 78.367
RightUpLeg  -68.8457 -20.0117 19.571
RightLeg  27.2859 2.7686 1.31858
RightFoot  5.56089 1.57585 -10.3193
RightToes  0.00048216 0.542163 -0.142577
Spine  63.6355 -6.0365 9.2972
Spine1  4.55434 0.789776 -4.68584
HEad  -33.1467 -5.59764 -5.73298
LeftShoulder1  9.39364 -27.4741 -23.8588
LeftArm  -61.6181 -67.3098 7.48423
LeftForeArm  -4.71804 -10.0852 -1.14417
LeftHand  -0.25398 0.0180481 5.50724
RightShoulder  5.22248 15.4189 21.2262
RightArm  -58.7456 52.7695 -19.5409
RightForeArm  -25.4286 9.04262 5.39536
RightHand  1.01325 6.68022 9.25401
LeftUpLeg  -63.1961 15.0467 -25.1148
LeftLeg  21.4876 -4.77358 -1.73956
LeftFoot  4.33887 -1.40594 9.99761
LeftToes  1.06248e-005 4.65855e-005 -8.185e-006
186
root  42.6055 37.6922 26.3379 111.71 87.0903 73.2674
RightUpLeg  -70.9925 -18.5686 20.2647
RightLeg  27.3581 2.35088 1.08864
RightFoot  4.70273 1.63103 -11.3003
RightToes  0.00048216 0.542163 -0.142577
Spine  64.5313 -5.73038 9.38705
Spine1  4.51994 1.49722 -4.95485
HEad  -34.4196 -6.1963 -6.11141
LeftShoulder1  8.38419 -28.0187 -19.9003
LeftArm  -69.038 -68.0478 13.2014
LeftForeArm  -4.84166 -10.3198 -0.105327
LeftHand  -0.25398 0.0180481 5.50724
RightShoulder  4.6515 14.9698 18.662
RightArm  -63.817 52.2176 -24.1486
RightForeArm  -24.3652 7.92494 4.29982
RightHand  1.20904 8.27439 9.71705
LeftUpLeg  -65.396 13.571 -24.7934
LeftLeg  21.7642 -3.42417 -1.16991
LeftFoot  3.58768 -1.43112 10.7134
LeftToes  1.06248e-005 4.65855e-005 -8.185e-006
187
root  43.0428 37.6305 26.5433 119.475 86.9052 78.8454
RightUpLeg  -72.4935 -17.69 20.5765
RightLeg  27.4828 1.72333 0.7397
RightFoot  3.93388 1.69426 -12.3703
RightToes  0.00048216 0.542163 -0.142577
Spine  66.1303 -6.068 9.39847
Spine1  2.82426 1.31432 -5.32756
HEad  -34.8603 -5.23203 -6.43041
LeftShoulder1  7.61274 -27.9251 -17.363
LeftArm  -72.9409 -67.4295 17.5823
LeftForeArm  -5.12629 -10.7302 0.145894
LeftHand  -0.25398 0.0180481 5.50724
RightShoulder  4.65135 15.6019 17.7419
RightArm  -67.1256 51.1203 -27.824
RightForeArm  -21.856 7.78321 3.58166
RightHand  1.4399 10.1505 10.158
LeftUpLeg  -67.0435 12.0899 -23.9585
LeftLeg  22.5921 -2.23783 -0.690549
LeftFoot  2.58666 -1.20919 9.74234
LeftToes  1.06248e-005 4.65855e-005 -8.185e-006
188
root  43.4612 37.6003 26.7207 124.032 86.5247 81.9049
RightUpLeg  -73.6617 -17.278 20.5172
RightLeg  28.1379 1.16724 0.441768
RightFoot  2.86918 1.52261 -11.9888
RightToes  0.00048216 0.542163 -0.142577
Spine  68.1338 -6.68511 9.07622
Spine1  0.950835 0.713809 -6.0716
HEad  -34.5934 -4.24763 -5.96679
LeftShoulder1  7.18713 -27.5533 -16.2102
LeftArm  -74.9231 -66.2294 20.7961
LeftForeArm  -5.79227 -11.8085 -0.202271
LeftHand  -0.25398 0.0180481 5.50724
RightShoulder  4.83195 16.519 17.4984
RightArm  -69.522 50.0284 -30.084
RightForeArm  -19.5647 8.85473 3.17732
RightHand  1.5858 11.3652 10.3585
LeftUpLeg  -68.1484 11.4049 -23.8463
LeftLeg  23.2945 -2.02643 -0.622459
LeftFoot  2.07796 -1.03524 8.67862
LeftToes  1.06248e-005 4.65855e-005 -8.185e-006
189
root  43.8426 37.5791 26.8479 120.229 86.207 76.8789
RightUpLeg  -74.6891 -16.8443 20.3712
RightLeg  29.0574 0.85683 0.277762
RightFoot  1.5173 1.24636 -10.9265
RightToes  0.00048216 0.542163 -0.142577
Spine  69.1821 -6.61478 8.57573
Spine1  1.38982 0.725158 -6.34401
HEad  -35.1159 -3.84722 -5.95675
LeftShoulder1  6.75846 -27.6289 -14.6518
LeftArm  -79.5975 -65.1623 23.2418
LeftForeArm  -4.90122 -14.0383 -0.250082
LeftHand  -0.25398 0.0180481 5.50724
RightShoulder  4.35759 15.7544 15.8766
RightArm  -72.8306 49.5962 -31.4725
RightForeArm  -18.2701 10.5315 2.76614
RightHand  1.61998 11.6274 10.4151
LeftUpLeg  -68.9932 10.9707 -23.8231
LeftLeg  23.8523 -1.52474 -0.400486
LeftFoot  1.68706 -1.01883 8.81809
LeftToes  1.06248e-005 4.65855e-005 -8.185e-006
